<?xml version="1.0" standalone="no"?>
<!DOCTYPE svg PUBLIC "-//W3C//DTD SVG 20010904//EN"
 "http://www.w3.org/TR/2001/REC-SVG-20010904/DTD/svg10.dtd">
<svg version="1.0" xmlns="http://www.w3.org/2000/svg"
 width="192.000000pt" height="192.000000pt" viewBox="0 0 192.000000 192.000000"
 preserveAspectRatio="xMidYMid meet">
<metadata>
Powered by STANNUM
</metadata>
<g transform="translate(0.000000,192.000000) scale(0.100000,-0.100000)"
fill="#000000" stroke="none">
<path d="M62 1355 c-19 -9 -34 -23 -38 -39 -13 -55 1 -72 129 -151 126 -79
370 -232 547 -343 56 -35 112 -66 126 -68 32 -6 74 35 75 73 6 193 0 492 -10
511 -24 45 -104 41 -124 -7 -8 -18 -12 -89 -12 -199 l1 -171 -36 22 c-47 29
-141 88 -386 242 -114 72 -214 133 -223 136 -10 4 -31 1 -49 -6z"/>
<path d="M1046 1137 l-24 -24 2 -267 1 -267 25 -20 c17 -13 34 -18 55 -14 57
10 60 19 65 220 l5 185 310 -195 c171 -108 321 -198 334 -202 53 -13 103 50
80 100 -6 13 -94 75 -202 142 -106 66 -193 123 -195 127 -2 5 -7 8 -12 8 -5 0
-91 52 -191 115 -100 63 -193 115 -206 115 -13 0 -34 -11 -47 -23z"/>
</g>
</svg>
